<svg width="377" height="232" viewBox="0 0 377 232" fill="none" xmlns="http://www.w3.org/2000/svg">
<path d="M341.043 159.638C341.043 187.239 315.063 208.797 284.074 208.798C278.481 208.798 272.83 208.06 267.435 206.584C257.181 218.549 240.887 225.497 223.69 225.497C210.845 225.497 198.413 221.581 188.592 214.516C177.642 220.843 164.937 224.261 151.896 224.261C130.339 224.261 110.098 215.015 97.2148 199.385C91.2478 202.697 84.134 204.446 76.833 204.446C58.1415 204.446 41.5396 192.652 41.3936 176.61C20.3336 171.967 5 154.696 5 134.236C5.00009 112.664 22.106 94.81 44.6045 91.3318C45.1099 61.729 73.5159 38.6833 107.427 38.6833C114.731 38.6834 122.042 39.7891 128.903 41.9284C135.564 20.1698 159.891 5.22531 187.3 5.22531C213.167 5.22532 236.487 18.5835 244.534 38.6716C250.262 37.0316 256.274 36.2136 262.364 36.2136C290.121 36.2138 314.068 53.4326 315.613 76.4743C330.426 76.915 343.911 81.0845 353.941 87.738C364.535 94.765 371.574 104.805 371.574 116.301V116.315C371.507 131.71 358.813 144.973 340.212 151.569C340.727 154.234 340.993 156.931 341.042 159.583L341.043 159.61V159.638Z" fill="#FFFBEE" stroke="#FFD6E3" stroke-width="6"/>
</svg>
