<svg width="806" height="540" viewBox="0 0 806 540" fill="none" xmlns="http://www.w3.org/2000/svg">
<rect width="806" height="540" fill="url(#paint0_linear_13_5)"/>
<path d="M304.526 236.157C306.111 234.257 309.911 231.078 322.772 216.179C334.687 202.375 333.475 193.861 333.021 178.618C332.48 160.42 315.668 153.102 314.718 151.512C311.114 145.481 296.907 158.802 294.668 162.783C293.269 165.271 291.799 167.404 290.849 169.151C290.361 170.05 289.269 170.584 288.782 169.018C285.663 158.988 290.51 152.806 294.644 141.993C297.042 135.722 300.058 128.307 302.765 123.509C305.162 119.259 307.696 115.245 314.05 105.55C317.193 100.753 320.738 96.1499 324.72 92.159C328.809 88.0598 337.886 84.0625 343.657 81.1744C350.038 77.9817 357.974 73.541 361.956 71.1541C368.058 67.4953 369.737 60.8235 377.695 56.9901C385.85 53.0619 397.101 49.6718 406.491 47.915C414.675 46.3838 419.079 45.5281 450.954 45.046C463.652 44.8539 470.637 43.6186 483.65 43.609C492.49 43.6026 497.37 47.4186 507.992 51.7055C528.561 60.0069 537.146 62.3702 543.037 65.2441C548.42 67.8704 557.788 74.4385 566.266 79.4033C572.485 83.0449 577.246 85.6093 584.564 90.3783C589.017 93.2797 592.217 98.3268 593.974 105.01C595.554 111.021 598.27 116.467 601.44 122.191C608.123 134.259 613.527 139.993 615.776 147.975C617.308 153.414 619.275 159.107 621.5 169.758C623.54 179.525 625.004 187.12 625.486 192.219C626.013 197.792 628.193 211.543 629.143 219.912C629.624 224.156 635.487 226.915 639.635 229.307C644.213 231.945 661.17 231.383 670.98 234.868C676.208 236.725 680.361 241.561 685.46 243.943C692.648 247.302 699.781 252.064 703.92 254.603C709.949 258.303 714.733 261.287 718.881 263.678C723.768 266.496 728.749 272.419 732.248 278.301C736.841 286.02 740.531 292.469 742.755 296.451C745.407 301.197 748.169 304.881 750.551 308.548C753.009 312.331 755.807 316.014 757.716 320.32C759.608 324.584 760.256 332.531 761.22 340.838C762.333 350.425 762.185 363.752 761.068 374.054C758.059 401.801 757.736 407.042 755.821 411.653C752.587 419.443 751.358 423.903 749.615 428.209C747.717 432.901 744.999 436.639 740.397 441.256C734.373 447.299 721.817 456.995 716.046 461.31C712.291 464.118 707.782 467.192 702.684 469.273C697.044 471.576 688.706 473.245 678.986 477.537C677.065 478.385 676.58 479.604 675.941 480.563C675.301 481.523 674.671 482.468 677.339 482.955C680.008 483.442 685.994 483.442 687.975 483.6C692.681 483.974 677.229 487.261 651.336 488.054C629.272 488.729 586.412 488.216 563.392 488.531C534.917 488.921 527.35 490.756 521.435 491.238C519.322 491.41 517.449 492.35 498.53 492.827C480.562 493.281 445.584 492.99 425.519 492.675C405.455 492.36 401.359 491.729 382.55 491.405C363.741 491.08 330.343 491.08 312.035 491.238C291.518 491.414 282.948 492.035 272.613 491.877C268.577 491.816 267.004 491.405 246.028 491.242C225.051 491.08 184.722 491.08 162.056 490.292C129.869 489.174 123.789 485.352 119.158 484.402C113.975 483.338 108.512 479.317 98.8215 476.458C80.107 470.936 73.797 462.456 70.7799 458.952C66.532 454.019 67.7438 441.528 66.9514 433.651C66.451 428.677 64.2493 424.266 62.6596 419.177C60.5744 412.501 56.0001 403.948 54.2195 392.772C53.7605 389.892 52.7921 387.975 51.6799 387.33C46.6852 384.436 47.6936 400.969 48.6436 407.676C49.3427 412.612 54.0524 416.589 54.8496 433.57C55.0108 437.002 56.2675 437.289 56.7544 435.245C59.6697 423.013 54.7016 415.692 52.7921 406.464C50.5257 395.512 51.5128 382.657 48.8203 376.508C47.9691 374.564 46.739 382.838 46.739 386.829C46.739 392.376 45.7841 373.071 44.1992 366.345C42.5841 359.49 42.9198 354.892 42.1274 349.798C40.7558 340.981 43.5499 336.427 44.0321 318.974C44.25 311.086 48.9539 306.829 51.6608 303.005C54.4801 299.022 55.962 295.372 58.3441 291.075C61.767 284.902 66.7508 281.68 70.9136 278.496C74.7677 275.548 80.4423 274.042 85.3879 272.128C92.04 269.553 96.3678 266.729 98.6067 262.905C101.022 258.779 104.006 255.272 105.457 252.393C107.022 249.29 94.229 260.618 85.2733 265.268C82.6948 266.607 80.4804 266.7 79.8407 267.66C76.8549 272.138 89.6843 257.181 94.7733 253.672C100.504 249.721 105.285 250.479 107.037 250.951C111.491 252.153 98.3155 260.007 93.5464 262.404C84.1873 267.107 77.005 271.77 73.3196 274.505C68.623 277.991 83.9558 262.28 86.9872 258.446C89.55 255.205 94.4582 253.362 99.0745 249.696C105.61 244.505 119.912 246.984 126.596 242.382C131.363 239.1 135.513 237.131 137.28 232.992C139.429 227.956 139.351 219.983 141.094 213.262C142.347 208.427 143.801 204.669 146.025 200.53C149.06 194.885 153.959 186.566 160.175 180.795C164.489 176.789 173.341 173.811 181.333 171.715C191.167 169.136 195.664 168.693 228.966 168.684C242.975 168.68 255.47 174.403 261.385 175.209C265.485 175.769 270.441 178.222 284.242 180.456C290.052 181.396 298.626 180.781 303.166 181.883C307.706 182.986 308.021 185.192 308.498 187.431C311.498 201.5 309.625 218.952 308.025 222.466C304.554 230.092 321.693 213.262 329.489 198.496C330.658 196.282 327.803 196.993 324.934 199.685C309.256 214.398 305.175 233.245 304.999 240.721C304.865 246.387 323.202 241.914 341.786 236.043C357.363 231.121 366.242 224.404 370.219 220.432C371.839 218.814 371.99 217.405 371.365 215.969C370.739 214.532 369.164 212.956 366.147 211.987C358.97 209.682 346.928 211.009 332.482 213.696C325.121 215.066 318.351 219.22 310.684 225.416C303.018 231.612 294.826 240.434 289.345 248.918C279.463 264.215 278.748 275.284 280.48 278.62C283.118 283.699 298.072 281.671 321.679 279.461C336.519 278.071 356.943 274.1 372.377 270.896C387.811 267.693 397.578 264.857 404.815 261.034C412.052 257.21 416.463 252.484 414.167 245.795C411.871 239.107 402.734 230.6 387.629 223.225C372.525 215.849 351.73 209.863 331.093 208.354C310.455 206.846 290.606 209.996 280.065 214.928C269.524 219.859 268.894 226.476 269.2 231.46C269.707 239.728 273.639 244.416 277.129 247.118C280.671 249.86 289.508 249.524 306.297 246.216C317.383 244.031 332.539 236.291 342.068 231.464C351.596 226.638 354.747 223.802 356.528 220.924C358.308 218.045 358.623 215.209 356.58 212.646C351.578 206.37 338.019 204.659 320.261 204.33C310.047 204.14 297.461 207.151 287.503 210.335C269.984 215.937 260.005 226.877 253.809 236.563C250.905 241.102 249.188 245.304 248.687 247.729C248.185 250.154 249.131 250.784 254.501 250.164C269.744 248.402 286.319 242.554 298.707 236.047C309.791 230.226 315.334 223.449 316.771 219.477C317.834 216.541 305.892 213.577 288.109 211.19C271.714 208.989 256.225 211.639 242.409 214.651C235.767 216.099 230.169 218.608 227.562 219.272C224.956 219.936 225.586 218.99 226.383 218.031C227.18 217.071 228.126 216.126 228.613 215.009C229.582 212.784 228.154 210.388 227.667 208.326C226.899 205.073 251.813 204.65 271.019 202.287C294.323 199.419 225.29 190.643 223.228 191.436C217.958 193.461 212.888 194.777 207.164 197.16C198.697 200.683 184.932 203.695 178.669 200.845C177.53 200.327 177.237 198.94 176.597 198.926C175.023 198.891 172.157 203.351 168.181 207.8C165.75 210.52 166.085 217.329 166.242 225.44C166.302 228.513 166.715 229.455 168.61 229.626C170.506 229.798 173.971 229.168 184.106 229.159C194.241 229.149 210.94 229.779 230.255 232.467C249.57 235.155 270.995 239.881 282.662 242.473C295.597 245.347 299.409 246.65 310.789 249.658C334.519 255.928 352.245 259.062 352.904 261.282C354.703 267.342 334.21 267.015 305.567 268.925C285.465 270.265 253.924 269.574 274.556 261.697C295.189 253.82 368.916 238.067 406.109 229.794C443.302 221.521 441.726 221.205 429.415 225.612C417.103 230.018 394.103 239.155 375.952 245.28C357.802 251.405 345.199 254.24 351.152 255.544C357.105 256.847 381.996 256.532 399.545 255.582C426.624 254.116 439.75 250.488 439.96 248.741C440.36 245.412 426.622 247.309 409.455 248.087C392.289 248.865 368.343 251.071 332.062 258.036C295.781 265.001 247.889 276.658 221.8 282.191C195.711 287.724 192.876 286.779 190.942 285.819C185.282 283.01 184.55 275.016 181.691 268.166C178.654 260.892 169.598 255.252 167.689 253.835C166.437 252.905 167.04 249.581 166.252 248.12C165.464 246.66 163.889 246.66 162.605 246.975C158.169 248.063 155.277 252.044 151.783 256.666C145.12 265.476 133.986 267.645 121.273 274.792C103.023 285.051 98.9456 285.786 95.6039 289.767C92.0526 293.998 88.7678 297.568 84.309 301.54C78.9812 306.286 76.3558 310.935 71.7442 316.491C68.159 320.811 64.2493 323.346 63.2945 328.564C59.7668 347.843 65.5096 358.31 67.5767 365.824C69.1039 371.376 69.6533 378.379 71.3958 383.65C73.4759 389.941 73.7779 394.629 76.3224 400.821C81.6354 413.75 87.1351 421.01 91.2645 430.228C93.0284 434.166 94.7637 436.296 98.0959 422.308C101.428 408.321 106.469 378.074 109.066 356.663C111.663 335.252 111.663 323.595 115.287 316.487C121.787 303.733 142.445 301.12 156.599 294.918C161.963 292.568 163.507 291.553 162.901 291.538C162.294 291.524 159.459 292.469 149.964 299.258C140.468 306.046 124.4 318.649 115.334 325.929C106.269 333.209 104.693 334.785 104.512 334.493C103.074 332.185 108.465 327.519 110.379 324.65C112.357 321.684 104.044 332.875 101.485 344.929C100.233 350.826 101.161 360.716 100.688 365.118C100.215 369.519 99.2702 368.259 97.9956 365.089C94.753 357.025 93.5225 343.177 93.8376 329.342C94.093 318.125 100.168 310.037 103.7 306.648C110.683 299.948 96.4441 339.119 92.7301 353.087C91.1284 359.111 94.4773 368.182 94.6348 366.841C95.3795 360.5 95.1074 342.499 96.3725 330.884C98.1814 314.277 105.896 306.523 112.413 301.277C116.522 297.969 127.484 294.742 144.006 289.662C168.44 282.151 179.118 271.818 181.032 269.116C181.712 268.156 180.426 267.359 179.466 266.877C178.506 266.395 177.561 266.08 176.129 267.178C172.23 270.167 168.338 281.27 164.834 292.574C163.778 295.98 164.481 294.742 173.628 285.585C182.774 276.429 200.418 259.415 209.98 249.548C221.118 238.054 221.777 233.942 222.254 231.402C223.811 223.119 216.373 212.622 215.738 209.763C215.235 207.5 211.627 221.368 205.593 247.271C201.324 265.598 195.072 277.164 192.67 279.599C173.708 298.825 200.457 240.014 198.881 234.758C195.225 222.561 166.199 252.293 158.599 261.759C157.588 263.019 164.404 262.26 178.807 257.372C193.21 252.484 217.471 243.031 215.633 247.772C213.795 252.512 185.123 271.732 184.846 276.907C184.569 282.081 213.556 272.629 232.742 265.712C251.928 258.795 260.435 254.699 264.187 252.589C267.939 250.479 266.679 250.479 249.961 256.15C233.243 261.821 201.106 273.164 186.125 277.904C171.145 282.645 174.296 280.439 179.857 277.728C185.419 275.016 193.296 271.865 215.943 265.674C238.59 259.482 275.769 250.345 298.387 245.165C321.006 239.986 327.937 239.041 332.138 238.396C336.339 237.752 337.599 237.436 300.597 254.761C263.595 272.085 188.293 307.058 180.85 319.088C173.408 331.118 236.108 319.145 251.866 313.923C267.624 308.7 234.542 310.591 210.883 313.613C187.223 316.634 173.99 320.73 164.968 324.101C155.945 327.471 151.534 329.992 149.892 331.29C148.25 332.589 149.51 332.589 157.249 331.486C164.987 330.383 179.165 328.178 209.154 318.692C239.144 309.206 284.514 292.507 305.051 284.063C325.588 275.618 319.917 275.933 312.742 277.198C305.567 278.463 297.06 280.668 283.541 285.27C270.021 289.872 251.747 296.804 239.497 301.95C227.247 307.096 221.576 310.247 217.709 312.185C213.842 314.123 211.952 314.754 249.732 307.674C287.512 300.594 365.02 285.786 364.619 286.192C364.218 286.597 283.56 302.666 281.235 303.225C278.91 303.783 357.363 288.345 384.86 283.385C412.358 278.425 386.522 284.411 356.828 293.639C327.135 302.867 294.367 315.155 276.699 322.115C259.032 329.075 257.456 330.335 289.412 328.937C321.368 327.538 386.904 323.442 421.137 321.174C455.37 318.907 456.315 318.592 402.452 328.039C348.589 337.487 239.888 356.706 184.521 365.819C129.154 374.933 130.415 373.357 135.633 370.813C140.85 368.268 149.987 364.803 192.346 355.14C234.704 345.478 310.007 329.724 350.059 321.136C390.112 312.548 392.632 311.603 364.629 313.321C336.626 315.04 278.022 319.451 247.36 322.038C216.697 324.626 215.752 325.256 226.45 325.581C237.148 325.905 259.518 325.905 297.981 321.809C336.444 317.713 390.322 309.521 422.96 303.411C455.599 297.3 465.366 293.52 467.09 291.887C468.813 290.254 462.197 290.884 426.493 298.928C390.79 306.972 326.199 322.411 290.878 330.522C255.556 338.632 251.46 338.947 250.926 337.534C250.391 336.121 253.542 332.971 266.192 325.834C278.843 318.697 300.898 307.669 318.719 299.625C336.54 291.581 349.458 286.855 363.359 282.688C377.26 278.52 391.754 275.054 398.117 270.906C404.481 266.757 402.275 262.031 400.824 260.542C399.373 259.052 398.743 260.943 399.363 265.225C400.968 276.294 404.767 284.516 407.302 285.8C411.355 287.853 417.151 274.73 425.715 257.935C430.954 247.662 436.17 232.949 440.036 221.544C446.498 202.487 448.056 187.531 448.376 177.033C448.495 173.154 448.066 172.207 444.753 186.843C441.44 201.48 435.139 231.727 431.735 249.357C428.331 266.987 428.016 271.082 428.169 272.72C428.266 273.76 431.176 256.685 433.406 229.035C434.363 217.159 433.745 209.576 433.425 205.208C433.105 200.84 432.79 199.895 437.038 217.682C441.287 235.47 450.109 272.018 455.757 293.682C461.404 315.346 463.61 321.017 466.479 311.966C469.348 302.914 472.814 278.969 474.599 259.229C476.384 239.489 476.384 224.681 475.282 226.189C474.179 227.698 471.973 245.972 470.837 261.057C469.701 276.143 469.701 287.485 470.646 290.178C472.167 294.509 475.745 265.898 475.434 241.423C475.226 224.992 469.72 214.245 466.383 208.502C465.495 206.973 463.992 210.321 463.347 228.481C462.703 246.64 462.388 280.038 463.17 303.23C464.36 338.475 468.107 351.674 470.002 352.004C471.673 352.294 474.418 349.183 481.077 341.745C487.737 334.307 498.134 321.704 506.326 309.541C514.518 297.377 520.189 286.034 525.001 273.732C529.813 261.43 533.594 248.512 534.754 235.871C535.914 223.23 534.339 211.257 533.527 206.349C532.716 201.442 532.716 203.962 534.921 220.227C537.127 236.491 541.538 266.423 543.968 288.774C546.398 311.125 546.713 324.989 547.033 330.87C547.218 334.285 547.362 324.702 545.147 308.056C543.849 298.299 541.041 286.053 538.483 276.1C534.017 258.73 528.286 247.337 522.734 240.186C520.094 236.787 516.236 235.241 512.561 236C504.167 237.733 498.373 251.357 493.289 267.225C490.663 275.42 489.465 284.354 489.126 294.097C488.425 314.235 491.651 327.786 493.714 332.398C494.57 334.313 496.091 334.804 497.213 334.498C499.715 333.817 502.144 324.702 505.166 308.844C506.85 300.004 506.612 289.204 505.829 280.062C504.413 263.517 496.797 248.961 488.854 237.351C485.684 232.717 482.801 231.727 479.139 232.496C475.477 233.264 470.751 236.1 466.426 244.02C462.101 251.939 458.32 264.857 456.215 279.862C454.11 294.866 453.795 311.565 455.995 329.934C458.196 348.304 462.922 367.839 466.775 379.162C470.627 390.486 473.463 393.006 476.184 394.305C478.905 395.603 481.426 395.603 484.457 394.658C491.225 392.548 501.142 383.888 507.543 374.345C509.528 371.387 500.082 369.844 459.328 369.357C418.573 368.87 344.531 368.87 345.142 367.294C345.753 365.719 423.261 362.568 466.34 360.315C509.419 358.062 515.721 356.802 516.289 355.68C516.857 354.558 511.501 353.613 484.323 354.386C457.146 355.159 408.309 357.68 368.028 362.129C327.746 366.578 297.499 372.88 282.705 376.599C267.911 380.318 269.486 381.263 274.551 382.38C279.616 383.497 288.123 384.757 308.732 385.406C329.341 386.056 361.793 386.056 402.614 382.432C443.435 378.809 491.642 371.562 517.42 367.514C543.199 363.466 545.09 362.836 531.728 362.669C518.366 362.502 489.694 362.817 436.957 369.911C384.221 377.004 308.288 390.868 272.637 397.537C236.986 404.206 243.918 403.261 292.701 402.616C341.485 401.972 431.911 401.657 426.98 403.385C422.049 405.113 319.02 408.894 266.417 411.157C213.814 413.419 214.759 414.049 237.931 413.586C261.103 413.123 306.474 411.548 342.922 408.531C379.371 405.514 405.522 401.103 417.733 398.515C429.945 395.928 427.424 395.298 405.646 398.439C383.867 401.58 342.908 408.512 364.5 412.555C386.092 416.599 471.477 417.544 474.031 418.031C476.585 418.518 393.721 418.518 379.075 417.258C364.428 415.997 420.511 413.477 459.8 409.973C499.089 406.469 519.884 402.058 513.267 399.785C506.651 397.513 471.993 397.513 441.22 399.718C410.448 401.924 384.612 406.335 373.981 408.607C363.35 410.88 368.706 410.88 395.096 406.941C421.485 403.003 468.746 395.126 493.881 391.068C519.015 387.01 520.59 387.01 510.374 382.442C500.158 377.873 478.103 368.736 462.488 361.351C437.826 349.688 430.231 341.516 430.556 339.129C430.672 338.27 428.99 338.317 385.648 345.249C342.306 352.18 256.921 366.044 189.147 373.658C121.373 381.272 73.797 382.217 50.3909 382.704C26.9848 383.191 29.1903 383.191 31.1142 383.034C34.6334 382.746 37.8119 381.606 55.1647 377.501C70.8865 373.781 100.874 367.724 116.766 364.32C132.658 360.917 133.604 360.602 134.248 359.967C135.565 358.669 136.162 356.152 137.275 353.77C140.179 347.55 131.408 337.382 128.381 327.543C127.431 324.455 127.894 320.883 127.894 323.666C127.894 345.948 129.479 352.906 135.824 370.073C140.953 383.951 140.612 392.071 142.211 397.494C142.951 400.005 143.17 404.168 142.855 408.937C142.726 410.891 141.91 411.815 140.64 412.302C139.37 412.789 137.48 412.789 136.034 412.317C130.663 410.562 127.913 404.215 126.62 400.707C124.277 394.352 114.871 432.744 111.043 440.306C107.985 446.344 99.9194 445.251 96.0765 444.931C92.3806 444.624 101.772 452.87 105.92 455.587C109.924 458.208 116.723 461.139 125.135 464.022C138.117 468.472 151.725 465.292 167.221 466.724C178.896 467.803 198.471 467.211 209.164 467.053C219.857 466.896 221.118 466.581 234.37 466.418C247.622 466.256 272.828 466.256 286.443 465.941C300.058 465.626 301.318 464.996 311.262 464.671C321.206 464.347 339.795 464.347 351.262 464.662C362.729 464.977 366.51 465.607 404.218 466.247C441.927 466.886 513.449 467.517 552.341 467.369C591.234 467.221 595.329 466.275 610.042 465.788C624.755 465.301 649.961 465.301 663.419 464.986C676.876 464.671 677.822 464.041 678.624 463.244C681.916 459.971 684.18 453.558 689.121 450.035C694.676 446.074 704.23 442.731 708.064 438.582C710.877 435.538 712.193 430.319 716.012 424.433C722.742 414.061 726.839 408.989 730.181 405.165C733.437 401.439 734.802 395.947 735.919 387.703C739.216 363.373 735.127 353.67 733.384 344.867C731.772 336.723 728.462 325.963 725.593 319.561C721.803 311.104 717.005 308.739 708.111 300.002C702.337 294.331 697.28 291.877 692.181 287.729C687.275 283.737 684.533 280.086 684.677 279.126C685.963 270.504 696.917 283.876 700.898 285.958C703.222 287.173 706.464 288.975 708.541 290.727C714.193 295.495 690.596 282.96 683.283 278.663C673.746 273.061 669.897 267.684 658.158 262.432C651.158 259.301 647.307 257.487 642.691 254.627C638.808 252.222 631.114 246.698 624.55 243.008C620.502 240.732 616.754 234.916 613.723 225.215C611.342 217.598 606.596 200.029 600.204 183.048C597.574 176.063 594.47 162.086 592.078 152.009C590.172 143.976 586.851 135.639 582.063 126.235C576.712 115.725 568.386 110.147 559.359 104.59C542.279 94.0765 524.476 92.3118 517.65 90.7268C505.103 87.8138 495.537 81.5038 487.417 78.4819C484.889 77.5411 485.913 77.0355 487.03 77.1882C491.925 77.8576 495.461 80.8355 499.442 82.4347C501.725 83.3518 506.584 83.3942 512.465 82.7641C514.947 82.4981 516.141 80.8736 515.845 79.7518C515.078 76.8424 507.93 75.7656 495.27 72.9157C472.606 67.8136 456.038 65.2536 451.909 65.5687C445.266 66.0756 437.296 70.6385 417.619 74.3144C394.329 78.665 377.423 76.0616 374.248 78.4438C367.127 83.7874 361.831 91.968 358.643 96.4268C355.344 101.039 351.004 104.38 347.82 107.411C343.603 111.426 339.566 122.177 336.201 128.092C332.935 133.83 334.449 142.895 332.549 144.332C327.449 148.189 323.316 140.69 322.037 138.785C319.031 134.31 329.656 130.522 335.365 127.008C341.069 123.498 351.253 122.549 361.736 121.117C366.528 120.462 370.329 120.63 369.126 131.185C367.923 141.74 361.621 162.85 356.8 177.033C349.63 198.123 345.266 206.225 345.576 208.297C345.903 210.477 354.126 197.432 361.445 173.648C365.546 160.321 364.352 142.934 363.412 135.744C362.471 128.555 360.266 131.705 357.712 136.322C346.598 156.409 345.581 169.915 347.796 176.78C348.327 178.426 350.011 179.482 351.448 179.344C352.885 179.205 354.461 177.63 358.738 168.311C370.677 142.302 377.404 122.874 377.724 123.48C378.742 125.41 377.413 131.648 376.306 140.088C375.198 148.528 373.308 159.241 372.176 174.369C371.045 189.498 370.73 208.717 372.3 213.892C373.871 219.067 377.337 209.615 380.54 197.971C383.743 186.328 386.579 172.78 388.04 159.971C390.817 135.62 389.186 121.604 388.393 120.315C387.991 119.661 387.286 124.067 386.961 134.512C386.636 144.958 386.636 162.602 387.897 176.732C390.074 201.142 396.165 214.169 399.659 218.938C401.144 220.964 402.524 221.816 404.118 220.728C408.651 217.634 413.017 204.736 419.055 186.805C422.173 177.548 423.204 167.299 423.858 157.379C425.133 138.046 422.927 125.433 421.18 121.924C420.425 120.409 417.523 133.271 415.136 154.042C413.769 165.94 414.325 180.8 417.16 186.538C419.996 192.276 425.667 188.495 430.164 181.979C440.059 167.64 441.373 149.98 439.645 141.683C438.19 134.696 425.495 156.52 419.619 173.644C416.293 183.335 414.687 195.809 415.914 207.652C417.141 219.496 421.867 230.524 427.453 238.568C433.038 246.612 439.339 251.338 447.469 254.718C464.697 261.88 482.991 259.1 495.079 252.598C500.208 249.839 500.865 244.521 500.569 236.42C500.273 228.318 498.382 216.661 493.628 203.409C488.873 190.156 481.311 175.663 474.737 164.416C463.498 145.186 456.029 136.871 453.017 136.226C448.734 135.31 443.951 143.821 439.339 152.391C434.833 160.764 437.86 169.925 441.822 176.594C446.007 183.638 456.592 187.76 465.977 190.629C469.289 191.641 470.007 190.347 470.646 187.34C474.601 168.745 471.62 152.185 469.715 143.922C468.892 140.35 467.811 138.179 467.166 141.296C464.805 152.718 467.772 168.617 473 182.585C475.729 189.879 481.063 196.553 483.97 200.282C486.877 204.01 487.823 204.325 489.57 201.809C494.678 194.455 497.38 180.857 498.497 165.146C499.075 157.016 498.039 148.49 497.556 145.841C497.352 144.718 498.325 162.201 503.867 184.437C506.502 195.008 512.876 202.893 516.265 204.75C521.057 207.375 523.159 190.395 524.591 174.699C525.417 165.643 525.078 154.276 524.29 149.851C523.502 145.425 521.927 148.261 520.643 150.825C518.285 155.532 517.44 161.017 518.07 165.161C518.247 166.323 519.96 164.893 520.609 160.306C522.358 147.947 516.847 134.999 509.692 127.524C506.231 123.909 502.822 118.768 500.11 111.608C499.23 109.282 500.865 109.173 501.987 109.488C504.175 110.103 505.973 111.713 507.72 113.298C509.674 115.07 505.39 123.428 497.919 133.295C495.224 136.855 493.284 136.231 491.842 135.281C484.261 130.285 484.977 109.288 483.87 100.279C483.497 97.2445 482.113 94.2308 481.64 91.6864C481.444 90.6263 480.223 90.4022 479.263 90.3974C477.333 90.3878 474.809 91.9776 471.634 94.5125C467.768 97.5999 466.837 103.416 466.364 106.609C466.023 108.913 463.027 98.7087 460.335 93.4527C456.238 85.4558 442.7 101.191 432.499 111.994C430.289 114.334 429.62 116.143 429.133 117.584C428.646 119.026 428.646 120.286 429.434 120.306C438.057 120.515 443.569 104.113 449.608 100.127C453.125 97.8051 459.476 111.627 465.366 124.368C467.277 128.5 451.331 102.91 440.767 92.6459C439.288 91.2094 438.213 90.7268 435.52 94.0256C427.481 103.876 422.927 112.352 421.022 112.357C415.628 112.371 415.279 100.943 412.907 95.8157C409.923 89.3686 400.977 108.18 398.58 112.19C396.064 116.401 387.324 102.222 381.399 100.098C379.697 99.4876 379.638 105.955 379.476 111.837C379.409 114.256 380.258 115.513 382.789 116.162C389.541 117.895 403.412 115.236 423.557 113.006C434.518 111.793 447.169 112.667 460.278 114.09C486.758 116.964 501.829 121.26 507.524 122.058C527.765 124.891 535.246 118.406 537.16 117.456C540.777 115.661 529.555 112.371 526.214 111.087C523.653 110.103 529.174 124.363 536.955 143.239C541.149 153.413 543.791 165.581 546.517 165.447C560.159 164.778 553.721 134.054 554.193 125.776C555.046 110.84 570.257 170.899 571.694 171.868C578.494 176.453 568.682 159.785 567.574 158.668C567.004 158.092 565.522 159.126 564.557 162.287C561.938 170.87 562.314 183.578 560.896 190.452C559.403 197.69 553.091 176.026 551.978 174.422C550.315 172.024 550.856 195.895 551.171 219.769C551.274 227.579 552.117 226.629 553.386 222.518C560.067 200.893 558.819 190.366 558.022 187.473C556.279 181.148 561.015 211.849 566.882 235.346C569.789 246.988 574.325 257.582 576.277 261.21C577.056 262.658 574.439 243.614 569.665 221.826C565.991 205.057 570.267 196.066 571.217 194.477C571.681 193.7 572.797 193.517 573.756 193.67C575.79 193.994 578.526 201.404 581.39 212.999C583.654 222.164 584.884 239.212 589.649 260.828C592.802 275.135 596.991 285.748 598.9 301.115C603.839 340.859 600.819 347.855 601.454 349.76C601.774 350.72 602.089 351.665 598.156 341.597C594.222 331.529 586.03 310.419 579.92 296.551C567.59 268.568 563.278 265.774 561.688 262.437C561.007 261.007 560.729 260.045 560.724 262.394C560.719 264.743 561.034 270.414 562.772 283.891C564.51 297.367 567.66 318.477 569.598 330.297C571.856 344.062 572.816 352.257 572.186 361.805C571.968 365.104 570.295 365.051 568.543 363.475C563.96 359.354 558.218 342.27 551.539 321.59C549.117 314.089 548.011 312.882 546.894 312.075C544.763 310.536 540.067 310.629 534.663 312.519C528.366 314.722 530.166 335.949 531.589 359.317C532.171 368.869 534.587 373.548 536.191 376.14C538.339 379.611 551.066 380.002 573.441 379.697C585.14 379.537 597.392 376.241 603.249 374.785C608.317 373.525 588.914 375.21 559.335 379.029C548.05 380.486 544.249 380.327 542.144 379.854C527.082 376.473 553.091 335.167 554.184 331.338C555.816 325.622 570.84 338.909 577.556 347.168C579.985 350.154 571.04 354.166 531.871 356.262C492.701 358.358 421.18 359.303 377.719 358.845C334.258 358.386 321.025 356.496 313.42 355.207C305.815 353.918 304.24 353.288 304.531 352.806C304.822 352.324 307.028 352.009 339.514 351.216C372 350.424 434.699 349.163 468.102 348.199C501.504 347.235 503.71 346.605 504.373 345.965C505.31 345.062 499.022 342.155 487.145 338.503C479.519 336.159 468.021 335.167 434.609 338.608C401.196 342.05 346.059 350.557 308.202 352.262C270.346 353.966 251.441 348.61 239.97 344.905C228.498 341.201 225.032 339.31 223.247 336.446C219.607 330.607 221.146 324.33 219.409 320.683C216.805 315.218 208.773 311.288 197.998 307.158C168.99 296.041 155.592 301.396 153.845 303.449C150.543 307.328 151.763 321.351 152.709 338.986C153.449 352.798 161.903 362.778 169.374 369.934C172.343 372.778 174.009 373.625 178.444 372.694C190.456 370.172 206.729 364.115 223.252 359.99C236.446 356.697 242.142 351.694 241.836 350.734C240.75 347.323 227.591 366.502 214.864 388.295C210.257 396.183 209.699 397.799 210.949 398.296C219.622 401.738 224.316 394.973 226.063 392.916C228.591 389.939 227.83 384.805 226.722 381.148C223.749 371.332 198.28 381.263 189.983 385.721C183.559 389.174 179.471 390.505 174.854 389.722C172.542 389.33 170.238 387.65 167.379 387.33C166.102 387.188 165.149 387.641 164.347 390.008C162.125 396.571 162.266 402.907 162.738 405.452C163.088 407.333 168.281 406.745 180.301 404.063C189.261 402.063 203.665 397.284 213.336 393.909C227.639 388.918 237.95 386.686 249.856 388.428C261.629 390.151 273.277 393.054 280.614 394.319C283.86 394.879 262.325 401.303 241.812 405.6C233.939 407.249 231.066 407.061 222.674 408.321C200.35 411.673 183.299 414.699 177.9 414.856C166.739 415.182 153.406 418.174 147.166 421.53C142.583 423.996 138.74 428.046 135.699 431.87C135.031 432.711 134.902 433.775 134.74 434.892C134.578 436.009 134.578 437.269 135.68 438.549C141.721 445.557 152.68 444.296 169.813 441.924C186.628 439.595 198.843 436.668 202.815 435.078C209.87 432.254 226.445 429.975 241.889 430.92C246.704 431.215 245.044 433.756 238.561 434.73C232.078 435.704 220.736 435.704 215.05 436.806C209.364 437.909 209.68 440.115 210.314 441.723C210.949 443.332 211.895 444.277 221.519 443.189C231.143 442.101 249.417 438.95 267.338 437.484C285.259 436.019 302.273 436.334 311.983 436.339C323.588 436.344 332.148 435.704 342.803 435.389C354.403 435.046 371.914 432.82 392.456 434.902C407.219 436.397 425.772 441.747 426.102 442.697C427.161 445.753 416.282 446.196 404.395 447.944C373.502 452.485 362.462 452.889 362.127 452.889C361.201 452.889 366.204 452.889 377.595 450.841C388.985 448.793 408.52 444.698 422.049 442.587C442.372 439.418 452.172 440.792 462.45 441.112C470.203 441.354 483.125 440.802 494.663 439.537C506.202 438.272 515.969 436.066 528.563 434.93C541.156 433.794 556.279 433.794 561.865 433.952C573.285 434.274 532.114 442.387 527.336 442.545C526.014 442.588 526.968 443.017 543.839 443.337C560.71 443.657 593.477 443.972 611.46 443.977C631.651 443.982 637.702 442.397 644.533 440.807C656.123 438.11 667.624 435.073 683.502 427.469C698.172 420.443 695.981 409.314 697.881 401.523C699.948 393.046 704.249 387.03 705.366 376.274C707.712 353.695 705.214 336.742 704.736 333.725C704.51 332.292 704.574 331.023 705.362 333.839C708.063 343.499 709.663 353.565 710.613 359.752C711.721 366.972 713.167 379.286 712.537 389.498C711.423 407.544 700.755 352.677 699.17 342.513C697.079 329.1 698.215 317.971 697.576 316.52C697.271 315.83 698.196 321.055 701.987 332.455C705.777 343.855 712.709 362.759 716.595 373.758C720.48 384.757 721.111 387.278 721.75 389.206C722.831 392.464 719.573 382.036 709.902 357.756C704.795 344.937 697.394 331.901 692.563 323.351C687.732 314.801 685.211 311.336 683.598 311.125C679.93 310.648 681.02 329.6 681.97 351.526C683.205 380.042 684.209 392.72 683.574 393.851C681.483 397.577 680.094 377.549 675.645 361.194C671.676 346.604 667.691 329.19 662.44 313.283C660.53 307.499 660.655 306.199 661.127 317.68C661.6 329.161 662.545 353.422 663.662 369.385C665.269 392.348 667.653 400.368 667.658 401.957C667.66 402.673 666.402 402.917 647.011 403.237C627.62 403.557 589.811 403.872 571.121 404.034C552.432 404.196 554.007 404.196 562.065 405.141C570.124 406.087 584.617 407.977 597.124 408.951C619.667 410.706 630.102 411.185 637.191 412.937C644.09 414.642 658.459 413.114 657.571 413.897C656.683 414.68 640.299 416.57 624.14 417.544C607.98 418.518 592.542 418.518 582.855 418.045C569.643 417.4 556.05 415.653 542.349 416.284C540.404 416.373 555.21 421.048 577.891 423.435C590.446 424.756 605.297 424.246 615.761 423.774C626.226 423.301 631.897 422.356 634.976 420.609C638.055 418.861 638.371 416.341 637.745 414.255C637.12 412.169 635.544 410.593 633.315 409.151C631.086 407.71 628.25 406.449 606.624 405.485C584.999 404.521 544.669 403.891 519.325 404.196C493.981 404.502 484.844 405.762 484.233 407.672C483.622 409.581 491.814 412.102 505.013 413.4C518.213 414.699 536.172 414.699 549.992 414.069C573.003 413.019 585.514 409.619 589.343 407.237C590.456 406.545 588.13 405.17 565.574 404.683C543.018 404.196 499.853 404.196 492.267 404.039C484.681 403.881 513.983 403.566 533.804 402.301C553.625 401.036 563.077 398.83 569.837 396.276C580.912 392.092 585.218 385.76 586.966 381.315C590.094 373.359 590.307 361.003 595.864 349.488C596.998 347.139 599.511 346.299 600.8 346.595C606.783 347.969 602.414 363.065 606.056 372.665C608.14 378.158 619.237 379.678 633.869 385.717C636.704 386.887 637.721 386.38 638.838 385.273C641.555 382.579 643.774 379.067 645.841 376.685C654.289 366.949 646.028 342.786 643.173 340.876C635.997 336.076 621.891 351.302 616.425 358.506C615.534 359.68 616.411 361.518 617.518 361.384C628.222 360.093 630.408 338.069 633.105 324.845C637.508 303.256 650.458 294.436 651.58 289.476C652.323 286.19 659.986 291.209 666.197 294.703C668.085 295.766 671.1 295.353 671.458 295.51C677.293 298.078 653.093 295.047 637 290.755C626.72 288.014 621.853 278.205 618.97 272.457C615.667 265.873 616.105 256.541 614.678 254.942C614.147 254.347 612.935 256.494 611.976 256.99C611.016 257.487 610.071 256.856 609.269 256.059C607.67 254.469 606.558 252.398 606.39 251.911C602.801 241.454 622.12 272.095 630.217 275.288C633.808 276.705 639.535 278.759 637.888 277.532C636.241 276.305 627.104 271.579 617.514 265.363C607.923 259.148 598.156 251.586 591.234 245.8C580.219 236.594 576.005 231.393 575.68 229.961C575.553 229.4 577.246 229.474 578.841 230.419C582.705 232.71 586.164 240.244 591.391 252.765C598.726 270.335 604.954 281.022 607.799 286.865C619.538 310.972 622.769 316.338 624.211 318.429C626.083 321.145 623.113 304.662 619.156 286.426C616.885 275.965 612.363 263.463 609.622 255.711C606.882 247.958 605.622 245.437 611.274 251.858C616.926 258.279 629.529 273.718 635.392 280.253C641.254 286.788 639.994 283.953 637.454 279.499C631.409 268.897 621.252 256.274 609.503 244.516C604.045 239.053 598.385 235.909 586.331 232.233C574.277 228.557 555.687 224.776 545.639 223.144C535.59 221.511 534.644 222.141 534.157 223.726C532.943 227.678 532.725 216.88 528.93 192.729C525.92 173.574 512.074 164.263 500.664 158.386C493.987 154.947 484.214 153.455 473.83 153.737C463.447 154.018 452.42 156.854 443.746 161.938C435.072 167.022 429.085 174.269 425.529 183.831C417.967 204.162 421.629 221.788 425.276 229.736C426.873 233.218 429.868 234.534 431.954 235.346C435.45 236.705 440.705 234.897 447.374 231.254C454.751 227.225 457.28 216.164 458.554 204.893C459.185 199.319 458.569 193.937 454.94 189.288C451.312 184.638 444.381 180.857 437.502 179.539C430.622 178.222 424.006 179.482 415.714 183.44C407.422 187.397 397.654 194.014 388.369 206.244C379.084 218.475 370.577 236.119 365.407 249.462C360.237 262.805 358.662 271.312 358.323 277.427C357.984 283.542 358.929 287.008 362.724 290.684C381.49 308.86 400.939 301.406 403.961 299.979C405.212 299.387 405.407 298.236 404.624 296.646C402.573 292.482 390.866 285.853 363.474 278.062C345.669 272.998 318.122 273.737 295.971 275.293C273.821 276.849 257.437 281.26 249.312 290.622C241.187 299.983 241.817 314.162 250.806 326.034C259.795 337.907 277.124 347.044 302.75 352.066C328.376 357.088 361.774 357.718 381.657 356.152C401.54 354.586 406.896 350.806 409.183 347.125C413.02 340.949 404.195 329.791 393.401 317.718C383.794 306.973 367.006 303 349.367 303.144C336.373 303.249 327.488 318.191 320.17 332.641C316.845 339.207 317.263 345.516 318.833 350.176C320.404 354.835 323.87 357.986 330.539 359.924C337.208 361.862 346.975 362.492 358.938 362.344C370.902 362.196 384.765 361.251 395.688 359.188C406.61 357.126 414.172 353.975 418.382 351.722C422.593 349.469 423.223 348.209 422.602 345.196C420.961 337.228 411.212 326.917 392.045 316.276C380.499 309.866 362.481 307.211 342.841 305.101C323.201 302.991 301.776 302.991 284.91 305.354C268.045 307.717 256.387 312.443 249.751 316.768C243.116 321.093 241.855 324.874 245.617 331.075C249.379 337.277 258.201 345.784 274.246 353.159C290.291 360.535 313.291 366.521 338.215 369.92C363.139 373.319 389.291 373.949 411.742 372.856C434.193 371.763 452.152 368.927 464.082 365.733C476.012 362.54 481.368 359.074 483.34 353.98C485.312 348.887 483.736 342.27 479.144 335.711C474.551 329.152 466.99 322.85 454.902 317.398C442.815 311.947 426.431 307.536 405.546 305.578C384.66 303.621 359.769 304.251 342.536 306.939C325.302 309.626 316.48 314.353 309.887 320.726C303.295 327.099 299.199 334.976 298.821 343.759C298.444 352.543 301.91 361.996 308.264 369.228C314.618 376.46 323.755 381.186 333.346 383.936C342.937 386.686 352.704 387.316 367.03 386.538C381.356 385.76 399.946 383.554 414.248 380.528C438.424 375.412 449.002 367.934 450.124 363.337C451.642 357.113 443.006 350.758 431.763 344.571C424.597 340.627 413.274 337.439 403.34 336.279C393.406 335.119 384.899 336.694 379.413 341.917C358.921 361.428 370.405 377.129 367.885 380.303C366.028 382.641 360.323 383.478 350.007 384.289C339.69 385.101 324.252 385.101 311.888 385.573C290.669 386.385 275.31 391.116 264.975 397.623C250.309 406.856 254.592 431.178 247.746 437.599C236.336 448.301 221.146 457.329 220.669 460.346C220.246 463.02 221.452 466.237 224.144 469.574C227.216 473.381 241.722 471.679 265.987 466.461C279.79 463.493 295.609 455.887 305.147 451.691C314.685 447.495 317.206 445.92 316.929 444.635C316.652 443.351 313.501 442.406 284.467 436.563C255.432 430.72 200.609 420.007 172.21 413.701C143.81 407.395 143.495 405.819 142.388 403.275C141.28 400.73 139.39 397.265 137.628 395.794C135.867 394.324 134.291 394.954 132.219 397.169C127.06 402.685 124.4 408.636 122.342 410.55C115.368 417.039 104.063 397.246 101.165 390.214C98.4073 383.52 96.7115 371.142 96.2293 357.465C96.0377 352.03 94.8019 348.829 92.1142 340.781C80.2492 305.249 81.4256 299.181 82.2181 298.222C86.5925 292.925 86.8392 324.521 96.6065 335.558C103.079 342.872 125.908 324.225 136.759 317.436C149.609 309.398 151.754 304.919 153.343 301.268C157.243 292.309 154.943 281.041 155.893 279.294C157.968 275.476 171.718 275.007 191.553 271.507C212.698 267.777 226.846 270.204 231.926 271.789C237.215 273.44 242.438 275.303 255.399 273.097C265.615 271.359 282.853 266.481 292.883 264.208C308.928 260.573 318.475 266.375 338.406 266.399C353.063 266.417 376.611 260.122 389.572 256.584C402.533 253.047 404.108 250.841 405.55 248.602C410.311 241.209 412.396 235.871 414.955 231.24C417.754 226.174 420.989 216.794 426.216 200.807C429.773 189.93 434.279 173.161 437.187 161.566C441.564 144.107 442.013 134.35 442.485 127.209C442.987 119.635 446.768 102.308 449.632 77.8422C452.907 49.8629 447.741 43.9623 444.891 40.4392C441.758 36.5651 435.349 36.9352 430.255 37.0832C428.343 37.1388 427.701 41.0503 425.796 43.2796C425.042 44.1625 423.891 43.6186 422.932 43.2987C421.972 42.9789 421.027 42.6638 421.958 42.5015C431.373 40.86 462.445 40.4297 470.837 40.2721C479.912 40.1018 443.369 41.3653 435.826 45.9673C432.99 47.6978 432.503 54.6366 426.173 67.6405C419.843 80.6445 409.131 100.809 400.146 122.54C391.162 144.27 384.23 166.956 379.872 180.375C374.343 197.397 371.37 202.406 367.889 209.992C360.51 226.077 354.203 242.468 347.701 253.577C344.255 259.464 339.623 265.316 333.57 271.708C327.517 278.1 319.955 284.717 299.203 294.269C278.452 303.822 244.739 316.109 226.111 323.07C204.857 331.011 200.791 334.164 194.15 339.702C181.082 350.6 169.923 358.348 165.956 364.048C154.992 379.801 154.637 387.001 153.52 388.906C152.529 390.596 158.724 393.675 166.663 397.012C173.752 399.991 179.433 400.692 210.653 401.327C239.98 401.924 296.697 401.962 330.797 403.227C364.896 404.492 374.663 406.698 380.955 408.307C389.845 410.579 396.461 413.725 406.605 417.849C412.578 420.278 420.531 422.604 431.835 425.32C443.139 428.037 457.633 430.872 478.017 432.491C498.401 434.109 524.237 434.424 539.595 433.799C559.156 433.002 567.679 429.03 579.404 427.44C596.668 425.099 609.078 425.526 613.36 424.413C628.605 420.453 646.944 422.031 658.683 420.59C669.985 419.202 686.338 417.277 702.077 411.873C717.119 406.708 725.541 399.136 730.496 396.405C734.948 393.952 748.684 391.784 758.972 392.577C760.878 392.724 763.712 392.739 765.331 391.951C775.633 386.937 766.959 364.115 765.526 360.134C763.037 353.213 762.509 343.435 762.49 336.904C762.487 335.869 764.381 336.713 765.345 337.668C769.093 341.379 767.904 346.261 768.066 347.698C768.584 352.277 763.77 333.601 762.82 327.829C762.033 323.049 758.366 318.286 756.776 313.99C754.301 307.3 750.747 303.01 747.706 298.394C745.211 294.607 744.999 289.643 742.459 284.712C739.16 278.305 735.776 274.367 729.584 267.851C723.824 261.788 718.284 259.091 711.601 254.789C706.858 251.737 701.423 247.328 696.478 244.44C689.71 240.488 681.698 238.086 676.108 235.369C670.047 232.424 659.414 232.338 651.14 231.23C641.601 229.953 627.333 226.609 612.697 227.082C607.494 227.25 606.882 228.5 605.612 234.501C602.027 251.444 600.504 270.137 600.662 282.22C600.851 296.768 607.493 308.7 609.885 318.835C613.658 334.823 611.637 347.531 612.749 350.863C613.931 354.404 616.077 361.499 620.836 375.754C628.147 397.65 629.462 414.67 630.57 419.912C632.384 428.497 638.351 434.711 642.5 439.193C646.554 443.574 655.852 446.817 660.149 453.157C668.622 465.66 662.564 472.596 664.149 480.382C665.382 486.439 664.159 491.071 663.366 492.975C660.53 499.791 644.443 497.114 638.561 497.921C634.918 498.421 615.952 498.718 589.386 498.403C578.219 498.271 563.087 497.124 541.929 497.759C526.382 498.225 512.379 497.458 506.164 496.651C501.137 495.999 479.134 494.899 460.984 493.314C457.63 493.021 454.444 492.36 451.737 492.035C450.872 491.931 451.236 493.601 452.343 494.565C454.904 496.795 458.864 496.809 461.409 497.281C462.469 497.478 462.693 498.699 462.225 499.344C461.757 499.988 460.497 500.303 440.944 500.465C421.39 500.628 383.581 500.628 363.159 500.47C342.736 500.313 340.846 499.998 327.584 499.835C314.322 499.673 289.746 499.673 275.983 499.358C256.108 498.903 250.448 497.133 227.123 496.966C220.833 496.921 206.004 497.764 184.689 497.448C171.643 497.256 161.063 493.944 154.327 492.994C148.571 492.183 143.514 490.775 138.573 489.023C134.897 487.719 133.957 474.935 131.57 459.998C128.895 443.257 133.298 433.527 137.103 416.861C138.867 409.132 140.898 396.806 142.979 387.483C146.426 372.046 149.529 361.91 152.217 351.765C156.054 337.284 166.352 322.478 176.196 309.607C180.689 303.733 185.409 300.203 196.661 302.824C207.913 305.445 225.872 314.582 253.871 324.645C281.87 334.708 319.363 345.421 345.137 351.412C370.911 357.403 383.829 358.348 393.792 358.678C410.363 359.226 424.436 355.217 437.306 349.025C447.299 344.217 451.866 338.336 452.988 334.684C453.507 332.995 451.274 331.347 447.784 330.536C439.132 328.524 424.598 331.93 408.868 337.004C401.749 339.301 397.234 343.339 394.484 346.07C391.735 348.801 391.105 350.691 391.41 352.61C392.058 356.678 398.685 360.573 406.944 363.757C410.649 365.185 413.943 364.421 416.511 362.683C421.991 358.975 423.863 349.192 425.295 338.241C426.757 327.059 424.206 317.666 419.141 311.627C416.355 308.305 410.295 307.478 400.762 306.509C391.229 305.54 377.681 305.225 362.667 305.85C347.653 306.476 331.584 308.051 320.628 309.493C309.672 310.934 304.316 312.195 303.29 313.947C302.263 315.699 305.729 317.904 309.878 319.513C314.026 321.122 318.752 322.067 333.317 322.712C347.882 323.356 372.143 323.671 388.737 323.046C413.602 322.109 424.483 317.962 428.775 315.579C430.608 314.562 431.491 313.512 431.978 311.45C432.465 309.388 432.465 306.237 431.362 303.984C430.26 301.731 428.054 300.47 425.782 299.172" stroke="url(#paint1_linear_13_5)" stroke-width="32" stroke-linecap="round"/>
<path d="M171.308 531.997C133.127 532.001 96.1227 518.692 66.5805 494.333C37.0384 469.974 16.7806 436.066 9.24852 398.37C1.71646 360.674 7.37464 321.514 25.2619 287.543C43.1491 253.572 72.1622 226.885 107.373 212.015C110.394 198.21 116.104 185.146 124.173 173.579C132.243 162.012 142.511 152.172 154.382 144.63C171.2 133.86 190.718 128.143 210.648 128.149C227.234 128.177 243.591 132.05 258.451 139.469C275.629 95.0575 307.329 57.8716 348.319 34.0489C389.309 10.2262 437.14 1.19073 483.917 8.43371C530.693 15.6767 573.619 38.7652 605.611 73.8885C637.602 109.012 656.746 154.071 659.883 201.628C701.08 207.949 738.375 229.738 764.274 262.618C790.172 295.497 802.755 337.029 799.494 378.868C796.232 420.708 777.368 459.754 746.692 488.16C716.016 516.567 675.802 532.228 634.13 531.997H171.308ZM634.13 498.704C667.368 498.754 699.4 486.167 723.822 463.462C748.244 440.756 763.256 409.603 765.858 376.232C768.46 342.861 758.459 309.731 737.856 283.464C717.252 257.198 687.564 239.731 654.726 234.555L628.609 230.427L626.89 203.858C624.259 163.851 608.16 125.943 581.249 96.3932C554.339 66.8437 518.228 47.4197 478.877 41.3281C439.526 35.2366 399.289 42.8417 364.81 62.888C330.33 82.9342 303.669 114.223 289.229 151.588L276.104 185.414L243.806 169.333C233.497 164.185 222.154 161.486 210.648 161.443C196.986 161.446 183.606 165.36 172.069 172.729C163.878 177.918 156.795 184.696 151.233 192.67C145.67 200.644 141.74 209.654 139.671 219.173L135.935 235.986L120.199 242.645C91.9887 254.511 68.7322 275.855 54.3874 303.045C40.0426 330.235 35.4958 361.59 41.5208 391.776C47.5458 421.961 63.7702 449.112 87.4332 468.607C111.096 488.102 140.736 498.738 171.308 498.704H634.13Z" fill="black"/>
<defs>
<linearGradient id="paint0_linear_13_5" x1="743.535" y1="390.15" x2="205.815" y2="-32.5196" gradientUnits="userSpaceOnUse">
<stop offset="1" stop-color="#FFD6E3" stop-opacity="0"/>
</linearGradient>
<linearGradient id="paint1_linear_13_5" x1="111.102" y1="37" x2="689.2" y2="500.588" gradientUnits="userSpaceOnUse">
<stop offset="0.393894" stop-color="#FFD6E3"/>
<stop offset="1" stop-color="#FBC0D2"/>
</linearGradient>
</defs>
</svg>
