<svg width="806" height="540" viewBox="0 0 806 540" fill="none" xmlns="http://www.w3.org/2000/svg">
<rect width="806" height="540" fill="url(#paint0_linear_13_5)"/>
<path fill-rule="evenodd" clip-rule="evenodd" d="M140 338.5L132.5 383L172.5 420.5H321.5H489.5H547.5H638L678 383C703 355.5 638 312 638 312L520.5 282L515 258C502.627 258 540 243.5 540 243.5L525.5 174L498 143.5L455 128L405.5 143.5L279.5 282C279.5 282 231 226 214 251L207.5 300.5C207.5 307.579 140 338.5 140 338.5Z" fill="url(#paint1_linear_13_5)" stroke="url(#paint2_linear_13_5)" stroke-width="194"/>
<path d="M171.308 531.997C133.127 532.001 96.1227 518.693 66.5805 494.333C37.0384 469.974 16.7806 436.066 9.24852 398.37C1.71646 360.674 7.37464 321.514 25.2619 287.543C43.1491 253.572 72.1622 226.885 107.373 212.015C110.394 198.21 116.104 185.146 124.173 173.579C132.243 162.012 142.511 152.172 154.382 144.63C171.2 133.86 190.718 128.143 210.648 128.149C227.234 128.177 243.591 132.05 258.451 139.469C275.629 95.0575 307.329 57.8716 348.319 34.0489C389.309 10.2262 437.14 1.19073 483.917 8.43371C530.693 15.6767 573.619 38.7652 605.611 73.8885C637.602 109.012 656.746 154.071 659.883 201.628C701.08 207.949 738.375 229.738 764.274 262.618C790.172 295.497 802.755 337.029 799.494 378.868C796.232 420.708 777.368 459.754 746.692 488.16C716.016 516.567 675.802 532.228 634.13 531.997H171.308ZM634.13 498.704C667.368 498.754 699.4 486.167 723.822 463.462C748.244 440.756 763.256 409.603 765.858 376.232C768.46 342.861 758.459 309.731 737.856 283.464C717.252 257.198 687.564 239.731 654.726 234.555L628.609 230.427L626.89 203.858C624.259 163.851 608.16 125.943 581.249 96.3932C554.339 66.8437 518.228 47.4197 478.877 41.3281C439.526 35.2366 399.289 42.8417 364.81 62.888C330.33 82.9342 303.669 114.223 289.229 151.588L276.104 185.414L243.806 169.333C233.497 164.185 222.154 161.486 210.648 161.443C196.986 161.446 183.606 165.36 172.069 172.729C163.878 177.918 156.795 184.696 151.233 192.67C145.67 200.644 141.74 209.654 139.671 219.173L135.935 235.986L120.199 242.645C91.9887 254.511 68.7322 275.855 54.3874 303.045C40.0426 330.235 35.4958 361.59 41.5208 391.776C47.5458 421.961 63.7702 449.112 87.4332 468.607C111.096 488.102 140.736 498.738 171.308 498.704H634.13Z" fill="black"/>
<defs>
<linearGradient id="paint0_linear_13_5" x1="743.535" y1="390.15" x2="205.815" y2="-32.5196" gradientUnits="userSpaceOnUse">
<stop offset="1" stop-color="#FFD6E3" stop-opacity="0"/>
</linearGradient>
<linearGradient id="paint1_linear_13_5" x1="92.3801" y1="6.30894" x2="741.12" y2="646.191" gradientUnits="userSpaceOnUse">
<stop offset="0.453722" stop-color="#FFD6E3"/>
<stop offset="0.648466" stop-color="#FBC0D2"/>
</linearGradient>
<linearGradient id="paint2_linear_13_5" x1="246.446" y1="-9.71705" x2="673.554" y2="656.217" gradientUnits="userSpaceOnUse">
<stop offset="0.345928" stop-color="#FFD6E3"/>
<stop offset="0.752027" stop-color="#FBC0D2"/>
</linearGradient>
</defs>
</svg>
